<svg width="1728" height="872" viewBox="0 0 1728 872" fill="none" xmlns="http://www.w3.org/2000/svg">
<mask id="mask0_1469_2779" style="mask-type:alpha" maskUnits="userSpaceOnUse" x="0" y="-252" width="1728" height="1124">
<rect y="-252" width="1728" height="1124" fill="#D9D9D9"/>
</mask>
<g mask="url(#mask0_1469_2779)">
<ellipse cx="864" cy="822.5" rx="864" ry="544.5" fill="url(#paint0_radial_1469_2779)"/>
<path d="M1727.5 948.5C1727.5 1120.75 1630.91 1276.74 1474.65 1389.68C1318.39 1502.63 1102.49 1572.5 864 1572.5C625.507 1572.5 409.612 1502.63 253.353 1389.68C97.093 1276.74 0.5 1120.75 0.5 948.5C0.5 776.25 97.093 620.262 253.353 507.317C409.612 394.373 625.507 324.5 864 324.5C1102.49 324.5 1318.39 394.373 1474.65 507.317C1630.91 620.262 1727.5 776.25 1727.5 948.5Z" stroke="url(#paint1_linear_1469_2779)"/>
<path d="M1727.5 658C1727.5 781.707 1631 893.825 1474.71 975.047C1318.44 1056.26 1102.52 1106.5 864 1106.5C625.477 1106.5 409.559 1056.26 253.29 975.047C96.9971 893.825 0.5 781.707 0.5 658C0.5 534.293 96.9971 422.175 253.29 340.953C409.559 259.744 625.477 209.5 864 209.5C1102.52 209.5 1318.44 259.744 1474.71 340.953C1631 422.175 1727.5 534.293 1727.5 658Z" stroke="url(#paint2_linear_1469_2779)"/>
</g>
<defs>
<radialGradient id="paint0_radial_1469_2779" cx="0" cy="0" r="1" gradientUnits="userSpaceOnUse" gradientTransform="translate(864 822.5) rotate(90) scale(544.5 864)">
<stop offset="0.305" stop-color="white" stop-opacity="0.9"/>
<stop offset="0.57" stop-color="#0081FF"/>
<stop offset="1" stop-color="#619DDB" stop-opacity="0"/>
</radialGradient>
<linearGradient id="paint1_linear_1469_2779" x1="864" y1="16.6244" x2="864" y2="1573" gradientUnits="userSpaceOnUse">
<stop stop-color="white"/>
<stop offset="0.45" stop-color="#999999" stop-opacity="0"/>
</linearGradient>
<linearGradient id="paint2_linear_1469_2779" x1="864" y1="-11.9954" x2="864" y2="854.5" gradientUnits="userSpaceOnUse">
<stop stop-color="white"/>
<stop offset="0.45" stop-color="#999999" stop-opacity="0"/>
</linearGradient>
</defs>
</svg>
