<svg width="21" height="20" viewBox="0 0 21 20" fill="none" xmlns="http://www.w3.org/2000/svg">
<path d="M5.1275 11.2834L1.16667 16.1983V18.8571H21V20H0.583333C0.428624 20 0.280251 19.9398 0.170854 19.8326C0.0614583 19.7255 0 19.5801 0 19.4286V0H1.16667V14.3543L4.27583 10.4966C4.15586 10.267 4.09033 10.0138 4.08413 9.75592C4.07792 9.49805 4.1312 9.24214 4.23999 9.00724C4.34878 8.77235 4.51027 8.56453 4.71245 8.39927C4.91462 8.23401 5.15226 8.11558 5.40765 8.05279C5.66305 7.99 5.92961 7.98448 6.18749 8.03663C6.44536 8.08879 6.6879 8.19728 6.89702 8.35401C7.10615 8.51075 7.27647 8.71169 7.3953 8.94187C7.51413 9.17205 7.57841 9.42553 7.58333 9.68343L11.4526 10.9463C11.6807 10.6585 11.9967 10.4495 12.3545 10.3499C12.7122 10.2502 13.0931 10.2649 13.4417 10.392L17.1623 6.01886C16.9513 5.67123 16.8726 5.26174 16.9401 4.86277C17.0075 4.4638 17.2168 4.10103 17.5309 3.8386C17.845 3.57616 18.2437 3.43095 18.6565 3.42864C19.0693 3.42632 19.4697 3.56705 19.7869 3.82594C20.104 4.08484 20.3175 4.44523 20.3896 4.84342C20.4617 5.24161 20.3878 5.65195 20.181 6.00192C19.9741 6.35189 19.6476 6.61895 19.2591 6.7559C18.8707 6.89284 18.4453 6.89086 18.0583 6.75029L14.3377 11.124C14.4746 11.3497 14.5566 11.6032 14.5777 11.8649C14.5987 12.1266 14.558 12.3895 14.4589 12.6334C14.3598 12.8773 14.2048 13.0956 14.0059 13.2715C13.8071 13.4475 13.5696 13.5763 13.3118 13.6481C13.0541 13.72 12.783 13.7328 12.5193 13.6858C12.2557 13.6387 12.0066 13.533 11.7913 13.3767C11.576 13.2205 11.4002 13.0178 11.2774 12.7845C11.1547 12.5512 11.0883 12.2933 11.0833 12.0309L7.21408 10.768C6.9749 11.0697 6.63954 11.2844 6.26142 11.3778C5.88329 11.4712 5.48413 11.438 5.1275 11.2834Z" fill="#45D2B0"/>
</svg>
